<svg width="111" height="20" viewBox="0 0 111 20" fill="none" xmlns="http://www.w3.org/2000/svg">
<path d="M10.8458 11.6431H6.49036L13.0475 19.7222H17.1382L10.8458 11.6431Z" fill="#1F2344"/>
<path d="M3.47577 0.277779H0V8.86528H3.47577V0.277779Z" fill="#1F2344"/>
<path d="M8.84853 8.86528L16.6302 0.277779H12.7L4.75916 8.86528H8.84853Z" fill="#1F2344"/>
<path d="M6.38873 11.6431H0V19.7222H3.47577V14.7153L6.38873 11.6431Z" fill="#1F2344"/>
<path d="M29.2447 20C27.8009 20 26.46 19.75 25.2208 19.25C23.9815 18.75 22.9081 18.0458 21.999 17.1389C21.09 16.2319 20.3854 15.1708 19.8868 13.9583C19.3882 12.7458 19.1382 11.4264 19.1382 10C19.1382 8.57361 19.3882 7.22639 19.8868 6.01389C20.3854 4.80139 21.09 3.74583 21.999 2.84722C22.9081 1.94861 23.9775 1.25 25.2074 0.75C26.4373 0.25 27.7835 0 29.2447 0C30.7058 0 32.0253 0.245833 33.2552 0.736111C34.485 1.22778 35.5505 1.92222 36.4502 2.81944C37.3499 3.71806 38.0504 4.77778 38.549 6C39.0477 7.22222 39.2976 8.55556 39.2976 10C39.2976 11.4444 39.0477 12.7736 38.549 13.9861C38.0504 15.1986 37.3499 16.2597 36.4502 17.1667C35.5505 18.075 34.485 18.7736 33.2552 19.2639C32.0253 19.7542 30.6884 20 29.2447 20ZM29.2447 16.8333C30.1898 16.8333 31.0587 16.6667 31.8515 16.3333C32.6442 16 33.3354 15.5278 33.9236 14.9167C34.5118 14.3056 34.9703 13.5833 35.3005 12.75C35.6307 11.9167 35.7951 11 35.7951 10C35.7951 9 35.6347 8.08333 35.3139 7.25C34.993 6.41667 34.5345 5.69444 33.9369 5.08333C33.3394 4.47222 32.6442 4 31.8515 3.66667C31.0587 3.33333 30.1898 3.16667 29.2447 3.16667C28.2995 3.16667 27.4225 3.33333 26.6111 3.66667C25.7996 4 25.1005 4.47639 24.5123 5.09722C23.9241 5.71806 23.4602 6.44028 23.122 7.26389C22.7837 8.08889 22.614 9 22.614 10C22.614 11 22.7837 11.8889 23.122 12.7222C23.4602 13.5556 23.9241 14.2819 24.5123 14.9028C25.1005 15.5236 25.7996 16 26.6111 16.3333C27.4225 16.6667 28.2995 16.8333 29.2447 16.8333Z" fill="#1F2344"/>
<path d="M41.2977 19.7222V0.277779H44.7735V16.6667H54.5591V19.7222H41.2977Z" fill="#1F2344"/>
<path d="M56.5591 19.7222V0.277779H60.0349V16.6667H69.8205V19.7222H56.5591Z" fill="#1F2344"/>
<path d="M71.8204 19.7222L80.2425 0.277779H83.6648L92.1136 19.7222H88.4507L81.2318 2.19445H82.6221L75.3764 19.7222H71.8204ZM75.6973 15.2222L76.6598 12.3889H86.7395L87.6753 15.2222H75.6973Z" fill="#1F2344"/>
<path d="M94.1136 19.7222V0.277779H102.91C105.139 0.277779 106.84 0.736112 108.017 1.65278C109.193 2.56945 109.781 3.79583 109.781 5.33333C109.781 6.37083 109.55 7.25417 109.086 7.98611C108.622 8.71806 108.003 9.28195 107.228 9.68056C106.453 10.0792 105.61 10.2778 104.701 10.2778L105.183 9.27778C106.235 9.27778 107.179 9.47778 108.017 9.875C108.855 10.2736 109.514 10.8528 109.995 11.6111C110.477 12.3708 110.717 13.3153 110.717 14.4444C110.717 16.1111 110.106 17.4069 108.886 18.3333C107.665 19.2597 105.851 19.7222 103.445 19.7222H94.1136ZM97.5894 16.8889H103.231C104.514 16.8889 105.503 16.6667 106.199 16.2222C106.894 15.7778 107.241 15.0653 107.241 14.0833C107.241 13.1014 106.894 12.4125 106.199 11.9583C105.503 11.5042 104.514 11.2778 103.231 11.2778H97.3221V8.47222H102.509C103.703 8.47222 104.631 8.25 105.29 7.80556C105.949 7.36111 106.279 6.69445 106.279 5.80556C106.279 4.91667 105.949 4.22222 105.29 3.77778C104.631 3.33333 103.703 3.11111 102.509 3.11111H97.5894V16.8889Z" fill="#1F2344"/>
</svg>
